<?xml version="1.0" encoding="UTF-8"?>
<!-- Generator: visioncortex VTracer -->
<svg id="svg" version="1.1" xmlns="http://www.w3.org/2000/svg" style="display: block;" viewBox="0 0 196 192"><path d="M0 0 C64.68 0 129.36 0 196 0 C196 63.36 196 126.72 196 192 C131.32 192 66.64 192 0 192 C0 128.64 0 65.28 0 0 Z " transform="translate(0,0)" style="fill: #F9F9FB;"/><path d="M0 0 C5.16222907 5.08883245 6.86602394 10.79241469 8.6484375 17.625 C7.81957031 17.46386719 6.99070313 17.30273438 6.13671875 17.13671875 C2.35057752 16.58130497 -1.34724026 16.44115947 -5.1640625 16.4375 C-6.1550293 16.41913086 -6.1550293 16.41913086 -7.16601562 16.40039062 C-15.63985775 16.37578121 -23.34900991 18.74936764 -31.2265625 21.6875 C-32.03158203 21.98624023 -32.83660156 22.28498047 -33.66601562 22.59277344 C-39.84469584 24.94028904 -45.86910098 27.56701166 -51.8515625 30.375 C-52.65835449 30.75148682 -53.46514648 31.12797363 -54.29638672 31.51586914 C-55.04678223 31.87672607 -55.79717773 32.23758301 -56.5703125 32.609375 C-57.22966797 32.92616211 -57.88902344 33.24294922 -58.56835938 33.56933594 C-60.48548344 34.70428178 -61.79679583 36.04305209 -63.3515625 37.625 C-64.0528125 37.8725 -64.7540625 38.12 -65.4765625 38.375 C-67.78881182 39.59944013 -67.78881182 39.59944013 -68.1015625 43.25 C-68.1840625 44.36375 -68.2665625 45.4775 -68.3515625 46.625 C-66.3715625 46.295 -64.3915625 45.965 -62.3515625 45.625 C-58.37827468 51.58493172 -60.10942548 59.37632208 -61.4140625 66.125 C-63.08900927 72.87310285 -66.31255564 78.03851822 -70.3515625 83.625 C-71.0115625 84.615 -71.6715625 85.605 -72.3515625 86.625 C-63.3902453 83.27754427 -63.3902453 83.27754427 -54.6640625 79.375 C-47.47937971 76.14386295 -40.73002597 76.05701393 -33.26171875 78.34765625 C-31.02454161 78.88979123 -31.02454161 78.88979123 -28.3515625 76.625 C-28.7021875 75.985625 -29.0528125 75.34625 -29.4140625 74.6875 C-30.71054945 70.45230931 -30.42459372 66.90157371 -29.3515625 62.625 C-26.96711766 58.70769776 -24.39265917 56.70573488 -20.3515625 54.625 C-13.0597892 53.23386783 -6.38546554 53.28036565 0.6484375 55.625 C0.6484375 56.285 0.6484375 56.945 0.6484375 57.625 C-0.2384375 57.975625 -1.1253125 58.32625 -2.0390625 58.6875 C-7.09779876 61.64638347 -9.42827944 65.62455337 -11.8515625 70.875 C-13.66585881 74.20120991 -14.87421576 75.15678693 -18.3515625 76.625 C-19.74291356 76.82567563 -21.13974932 76.99064565 -22.5390625 77.125 C-23.7971875 77.29 -25.0553125 77.455 -26.3515625 77.625 C-27.0115625 78.615 -27.6715625 79.605 -28.3515625 80.625 C-27.59230469 80.75777344 -26.83304687 80.89054687 -26.05078125 81.02734375 C-25.05691406 81.20394531 -24.06304687 81.38054687 -23.0390625 81.5625 C-22.05292969 81.73652344 -21.06679687 81.91054687 -20.05078125 82.08984375 C-17.3515625 82.625 -17.3515625 82.625 -14.3515625 83.625 C-12.84500148 83.73744811 -11.33460349 83.80264153 -9.82421875 83.8359375 C-8.94958984 83.86429687 -8.07496094 83.89265625 -7.17382812 83.921875 C-5.33809235 83.97384204 -3.50212327 84.01814804 -1.66601562 84.0546875 C-0.79009766 84.085625 0.08582031 84.1165625 0.98828125 84.1484375 C1.78613037 84.16825684 2.58397949 84.18807617 3.40600586 84.20849609 C6.13274389 84.71495391 7.5681589 85.83511034 9.6484375 87.625 C9.3184375 88.615 8.9884375 89.605 8.6484375 90.625 C7.57891846 90.12601196 7.57891846 90.12601196 6.48779297 89.61694336 C3.40993544 88.54167808 1.44847655 88.50457923 -1.78125 88.75390625 C-2.81701172 88.82101807 -3.85277344 88.88812988 -4.91992188 88.95727539 C-6.01111328 89.03324951 -7.10230469 89.10922363 -8.2265625 89.1875 C-17.09769988 89.69247047 -24.65269886 89.48574064 -33.29296875 87.328125 C-37.4250143 86.37822947 -41.13391763 86.40301869 -45.3515625 86.625 C-43.4035624 88.90837929 -43.4035624 88.90837929 -40.0390625 89.5 C-35.98753602 90.73605892 -34.18487091 91.48538797 -31.3515625 94.625 C-30.70138408 96.40048721 -30.1023406 98.19506106 -29.5390625 100 C-27.6223166 105.94111694 -24.67460968 108.56295587 -19.3515625 111.625 C-24.58120401 114.79832616 -30.44941661 114.17502076 -36.3515625 113.625 C-40.37502743 112.62702911 -43.13229755 111.16384437 -45.72265625 107.89453125 C-48.50845701 103.0651673 -49.24002309 98.12105853 -48.3515625 92.625 C-47.328125 90.359375 -47.328125 90.359375 -46.3515625 88.625 C-47.0115625 87.965 -47.6715625 87.305 -48.3515625 86.625 C-55.55367566 87.50947004 -61.92070997 90.39534287 -68.49829102 93.32397461 C-74.0357312 95.7302771 -74.0357312 95.7302771 -77.3515625 94.625 C-77.3515625 91.655 -77.3515625 88.685 -77.3515625 85.625 C-79.0015625 85.295 -80.6515625 84.965 -82.3515625 84.625 C-83.40379035 94.7130257 -81.56879128 102.22433356 -77.84155273 111.51855469 C-75.74920382 116.84879622 -74.84511446 120.88525557 -75.3515625 126.625 C-76.9140625 129.625 -76.9140625 129.625 -79.3515625 131.625 C-83.1015625 131.9375 -83.1015625 131.9375 -86.3515625 131.625 C-86.30515625 132.21667969 -86.25875 132.80835938 -86.2109375 133.41796875 C-86.01308761 137.74946804 -85.91501683 139.95653944 -88.3515625 143.6875 C-89.0115625 144.326875 -89.6715625 144.96625 -90.3515625 145.625 C-95.89002404 145.13269231 -95.89002404 145.13269231 -98.2265625 142.5625 C-98.5978125 141.923125 -98.9690625 141.28375 -99.3515625 140.625 C-99.6815625 140.955 -100.0115625 141.285 -100.3515625 141.625 C-106.63063227 141.27616279 -106.63063227 141.27616279 -109.2890625 138.875 C-110.53049536 136.24608336 -110.66236537 134.49992653 -110.3515625 131.625 C-110.0215625 131.295 -109.6915625 130.965 -109.3515625 130.625 C-110.1559375 130.233125 -110.9603125 129.84125 -111.7890625 129.4375 C-114.3515625 127.625 -114.3515625 127.625 -115.2421875 125.3359375 C-115.39369962 121.58060127 -114.02495171 120.30701884 -111.6640625 117.4375 C-107.77202077 112.42078772 -105.33277785 107.6338176 -103.3515625 101.625 C-102.6915625 101.625 -102.0315625 101.625 -101.3515625 101.625 C-101.0215625 96.675 -100.6915625 91.725 -100.3515625 86.625 C-102.3315625 87.12 -102.3315625 87.12 -104.3515625 87.625 C-105.0115625 87.295 -105.6715625 86.965 -106.3515625 86.625 C-106.1865625 87.305625 -106.0215625 87.98625 -105.8515625 88.6875 C-105.28067191 92.0414822 -105.28497227 95.22889805 -105.3515625 98.625 C-106.83027221 98.68056738 -108.30964494 98.71847512 -109.7890625 98.75 C-110.61277344 98.77320312 -111.43648437 98.79640625 -112.28515625 98.8203125 C-116.36504983 98.56044667 -120.36075245 97.51184668 -124.3515625 96.625 C-124.3515625 110.485 -124.3515625 124.345 -124.3515625 138.625 C-126.9915625 138.625 -129.6315625 138.625 -132.3515625 138.625 C-136.14125962 131.04560577 -134.48863914 119.10372634 -134.44921875 110.76171875 C-134.4478038 109.60372269 -134.44638885 108.44572662 -134.44493103 107.25263977 C-134.43939747 103.60589862 -134.42685802 99.95922215 -134.4140625 96.3125 C-134.40903889 93.81836027 -134.40447751 91.32421957 -134.40039062 88.83007812 C-134.38944993 82.76169721 -134.37277968 76.69335323 -134.3515625 70.625 C-132.546875 70.01953125 -132.546875 70.01953125 -130.3515625 69.625 C-127.40649681 71.21533547 -126.18229763 71.94351148 -124.3515625 74.625 C-123.25951938 78.59138302 -122.7300362 82.53356883 -122.3515625 86.625 C-118.02592045 88.20755197 -113.9228415 89.07644652 -109.3515625 89.625 C-109.81046875 89.068125 -110.269375 88.51125 -110.7421875 87.9375 C-119.37836363 77.19670952 -122.33711058 68.3930413 -121.58251953 54.64306641 C-121.03841271 49.88874609 -119.27999319 45.39942178 -116.3515625 41.625 C-113.67578125 40.3359375 -113.67578125 40.3359375 -111.3515625 39.625 C-110.6915625 40.285 -110.0315625 40.945 -109.3515625 41.625 C-109.25359375 40.66980469 -109.155625 39.71460938 -109.0546875 38.73046875 C-107.61446114 26.27747706 -105.62741987 14.98045124 -95.3515625 6.625 C-87.94217624 2.32970362 -79.77731772 0.58211371 -71.43554688 -0.97607422 C-69.07364773 -1.42819971 -66.72092631 -1.9173366 -64.3671875 -2.41015625 C-62.61204471 -2.77375402 -60.85683661 -3.13703672 -59.1015625 -3.5 C-58.28623047 -3.67088135 -57.47089844 -3.8417627 -56.63085938 -4.01782227 C-40.28468095 -7.32762655 -13.61635705 -11.56000925 0 0 Z " transform="translate(170.3515625,25.375)" style="fill: #1F3BAB;"/><path d="M0 0 C6.33302148 5.37660599 8.51863963 11.41520192 10.5625 19.25 C9.73363281 19.08886719 8.90476562 18.92773438 8.05078125 18.76171875 C4.26464002 18.20630497 0.56682224 18.06615947 -3.25 18.0625 C-4.2409668 18.04413086 -4.2409668 18.04413086 -5.25195312 18.02539062 C-13.71533695 18.00081158 -21.38671019 20.37060744 -29.25 23.3125 C-30.0546167 23.60688965 -30.8592334 23.9012793 -31.68823242 24.20458984 C-36.19327057 25.89186028 -40.56621254 27.73989616 -44.90625 29.81640625 C-46.24659302 30.45340454 -46.24659302 30.45340454 -47.61401367 31.10327148 C-49.34100749 31.93645763 -51.05798612 32.7908071 -52.76293945 33.66821289 C-55.00155281 34.75114641 -57.0156607 35.68278427 -59.4375 36.25 C-63.01171875 34.9921875 -63.01171875 34.9921875 -65.4375 33.25 C-65.4375 32.59 -65.4375 31.93 -65.4375 31.25 C-66.015 31.023125 -66.5925 30.79625 -67.1875 30.5625 C-70.23430834 28.78519513 -71.56314639 27.27479195 -73.4375 24.25 C-73.89733712 21.02488636 -73.77016871 17.87284223 -73.625 14.625 C-73.57266043 12.92460219 -73.52431332 11.22407555 -73.48046875 9.5234375 C-73.43442505 8.40074463 -73.43442505 8.40074463 -73.38745117 7.25537109 C-73.34492436 5.04029353 -73.34492436 5.04029353 -74.4375 2.25 C-54.57231736 -3.84570246 -18.47994962 -12.8118707 0 0 Z " transform="translate(168.4375,23.75)" style="fill: #F7B511;"/><path d="M0 0 C0 0.66 0 1.32 0 2 C-1.3303125 2.5259375 -1.3303125 2.5259375 -2.6875 3.0625 C-7.74623626 6.02138347 -10.07671694 9.99955337 -12.5 15.25 C-14.31429631 18.57620991 -15.52265326 19.53178693 -19 21 C-20.39135106 21.20067563 -21.78818682 21.36564565 -23.1875 21.5 C-25.0746875 21.7475 -25.0746875 21.7475 -27 22 C-27.66 22.99 -28.32 23.98 -29 25 C-28.24074219 25.13277344 -27.48148438 25.26554687 -26.69921875 25.40234375 C-25.70535156 25.57894531 -24.71148437 25.75554687 -23.6875 25.9375 C-22.20830078 26.19853516 -22.20830078 26.19853516 -20.69921875 26.46484375 C-18 27 -18 27 -15 28 C-13.49343898 28.11244811 -11.98304099 28.17764153 -10.47265625 28.2109375 C-9.59802734 28.23929688 -8.72339844 28.26765625 -7.82226562 28.296875 C-5.98652985 28.34884204 -4.15056077 28.39314804 -2.31445312 28.4296875 C-1.43853516 28.460625 -0.56261719 28.4915625 0.33984375 28.5234375 C1.13769287 28.54325684 1.93554199 28.56307617 2.75756836 28.58349609 C5.48430639 29.08995391 6.9197214 30.21011034 9 32 C8.67 32.99 8.34 33.98 8 35 C6.93048096 34.50101196 6.93048096 34.50101196 5.83935547 33.99194336 C2.76149794 32.91667808 0.80003905 32.87957923 -2.4296875 33.12890625 C-3.46544922 33.19601807 -4.50121094 33.26312988 -5.56835938 33.33227539 C-6.65955078 33.40824951 -7.75074219 33.48422363 -8.875 33.5625 C-17.74613738 34.06747047 -25.30113636 33.86074064 -33.94140625 31.703125 C-38.0734518 30.75322947 -41.78235513 30.77801869 -46 31 C-44.0519999 33.28337929 -44.0519999 33.28337929 -40.6875 33.875 C-36.63597352 35.11105892 -34.83330841 35.86038797 -32 39 C-31.34982158 40.77548721 -30.7507781 42.57006106 -30.1875 44.375 C-28.2707541 50.31611694 -25.32304718 52.93795587 -20 56 C-25.22964151 59.17332616 -31.09785411 58.55002076 -37 58 C-41.02346493 57.00202911 -43.78073505 55.53884437 -46.37109375 52.26953125 C-49.15689451 47.4401673 -49.88846059 42.49605853 -49 37 C-47.9765625 34.734375 -47.9765625 34.734375 -47 33 C-47.66 32.34 -48.32 31.68 -49 31 C-56.20211316 31.88447004 -62.56914747 34.77034287 -69.14672852 37.69897461 C-74.6841687 40.1052771 -74.6841687 40.1052771 -78 39 C-77.67 36.69 -77.34 34.38 -77 32 C-75.87722656 31.61328125 -74.75445312 31.2265625 -73.59765625 30.828125 C-72.0856372 30.30294712 -70.57393914 29.7768445 -69.0625 29.25 C-68.2799585 28.97776611 -67.49741699 28.70553223 -66.69116211 28.42504883 C-62.70798029 27.02109634 -58.85868267 25.55120562 -55.0625 23.6875 C-48.00940789 20.43954429 -41.24861064 20.47184174 -33.91015625 22.72265625 C-31.67297911 23.26479123 -31.67297911 23.26479123 -29 21 C-29.5259375 20.0409375 -29.5259375 20.0409375 -30.0625 19.0625 C-31.35898695 14.82730931 -31.07303122 11.27657371 -30 7 C-27.65157585 3.1418746 -25.15469849 0.76795681 -21 -1 C-13.66323001 -2.43648733 -7.18856623 -1.88680372 0 0 Z " transform="translate(171,81)" style="fill: #A5583F;"/><path d="M0 0 C1.37031914 2.74063828 1.18933288 5.12943636 1.3125 8.1875 C1.73019346 14.00950418 2.45550379 17.37246329 6 22 C7.63654821 23.37013339 9.29803595 24.7120272 11 26 C12.24115991 29.72347974 11.18959924 31.0016505 9.7578125 34.484375 C8.83097651 37.56108827 8.66836025 40.41883527 8.5 43.625 C7.98045417 52.09457729 7.98045417 52.09457729 5 56 C0.65666521 58.96136463 -2.80222575 59.55690438 -8 59 C-13.44000465 56.9733316 -16.44747889 54.32492719 -18.91015625 49.05078125 C-23.06640154 37.66460229 -22.39029152 22.22482335 -18 11 C-13.90465587 4.14192372 -8.21237848 0 0 0 Z " transform="translate(91,31)" style="fill: #FDFDFD;"/><path d="M0 0 C8.94543666 20.89625718 8.94543666 20.89625718 8 29 C6.4375 32 6.4375 32 4 34 C0.25 34.3125 0.25 34.3125 -3 34 C-2.95359375 34.59167969 -2.9071875 35.18335938 -2.859375 35.79296875 C-2.66152511 40.12446804 -2.56345433 42.33153944 -5 46.0625 C-5.66 46.701875 -6.32 47.34125 -7 48 C-12.53846154 47.50769231 -12.53846154 47.50769231 -14.875 44.9375 C-15.431875 43.9784375 -15.431875 43.9784375 -16 43 C-16.495 43.495 -16.495 43.495 -17 44 C-23.27906977 43.65116279 -23.27906977 43.65116279 -25.9375 41.25 C-27.17893286 38.62108336 -27.31080287 36.87492653 -27 34 C-26.505 33.505 -26.505 33.505 -26 33 C-26.804375 32.608125 -27.60875 32.21625 -28.4375 31.8125 C-31 30 -31 30 -31.890625 27.7109375 C-32.04213712 23.95560127 -30.67338921 22.68201884 -28.3125 19.8125 C-24.42045827 14.79578772 -21.98121535 10.0088176 -20 4 C-19.34 4 -18.68 4 -18 4 C-18 3.01 -18 2.02 -18 1 C-15.93769732 0.8309093 -13.8751477 0.66482867 -11.8125 0.5 C-10.08966797 0.36078125 -10.08966797 0.36078125 -8.33203125 0.21875 C-5.53927574 0.0354038 -2.79680188 -0.04213637 0 0 Z " transform="translate(87,123)" style="fill: #1D39AC;"/><path d="M0 0 C0 0.33 0 0.66 0 1 C-1.134375 1.268125 -2.26875 1.53625 -3.4375 1.8125 C-4.613125 2.204375 -5.78875 2.59625 -7 3 C-8.82199993 8.4659998 -8.25729362 12.80733247 -6 18 C-6.57967529 18.01981934 -7.15935059 18.03963867 -7.7565918 18.06005859 C-10.40065937 18.15572601 -13.0439817 18.26523453 -15.6875 18.375 C-16.59951172 18.4059375 -17.51152344 18.436875 -18.45117188 18.46875 C-23.6302898 18.64945687 -23.6302898 18.64945687 -28.5703125 20.03515625 C-32.37089338 21.54439014 -36.14377971 21.16899862 -40.1875 21.0625 C-45.75832436 20.65484969 -45.75832436 20.65484969 -51 22 C-52.99960012 22.039992 -55.00047242 22.04346799 -57 22 C-58.49656903 19.00686195 -58.28043716 15.91831158 -58.42578125 12.60546875 C-59.15830483 9.28170529 -60.75016029 7.5013188 -63 5 C-42.58729176 -0.26285094 -21.02705317 -3.6005228 0 0 Z " transform="translate(160,20)" style="fill: #FDCC3E;"/><path d="M0 0 C3.97936765 0.42636082 6.38022372 2.03551631 9 5 C10.02934129 8.96428365 10.57131453 12.9306872 11 17 C15.58416539 18.68890304 20.13453789 19.6685786 24.92578125 20.53515625 C27 21 27 21 28 22 C28.04092937 24.33297433 28.04241723 26.66705225 28 29 C26.52129029 29.05556738 25.04191756 29.09347512 23.5625 29.125 C22.32693359 29.15980469 22.32693359 29.15980469 21.06640625 29.1953125 C16.98651267 28.93544667 12.99081005 27.88684668 9 27 C9 40.86 9 54.72 9 69 C6.36 69 3.72 69 1 69 C-2.7809309 61.43813819 -1.14829393 49.50119384 -1.1328125 41.171875 C-1.13424759 39.43843842 -1.13424759 39.43843842 -1.13571167 37.66998291 C-1.1363861 35.2567133 -1.13458386 32.8434418 -1.13037109 30.43017578 C-1.12495291 26.71773305 -1.13037103 23.00540807 -1.13671875 19.29296875 C-1.13605899 16.9401039 -1.13477995 14.58723912 -1.1328125 12.234375 C-1.13483673 11.12100769 -1.13686096 10.00764038 -1.13894653 8.86053467 C-1.13579437 7.84147034 -1.13264221 6.82240601 -1.12939453 5.77246094 C-1.12859894 4.87235291 -1.12780334 3.97224487 -1.12698364 3.04486084 C-1 1 -1 1 0 0 Z " transform="translate(37,95)" style="fill: #BD5D41;"/><path d="M0 0 C1.32 0.66 2.64 1.32 4 2 C4.05506505 3.52040718 4.09326375 5.04142704 4.125 6.5625 C4.14820313 7.40941406 4.17140625 8.25632812 4.1953125 9.12890625 C4 12 4 12 3.01171875 15.31640625 C1.87179374 19.4667896 1.65575628 23.09969804 1.6875 27.375 C1.69023926 28.12015869 1.69297852 28.86531738 1.69580078 29.63305664 C1.81573252 35.95152908 2.30295503 42.30295503 7 47 C7 48.32 7 49.64 7 51 C1.02309237 49.00769746 -2.58971004 42.11524454 -5.375 36.6875 C-9.26443892 28.62114188 -9.50955355 18.11149987 -6.98828125 9.57421875 C-3.91733114 2.6115541 -3.91733114 2.6115541 0 0 Z " transform="translate(57,65)" style="fill: #0F1C41;"/><path d="M0 0 C-4.19273126 1.39757709 -8.30071965 1.01082816 -12.66796875 0.87304688 C-21.22112212 0.73509279 -28.86668103 3.08973081 -36.8125 6.0625 C-37.6171167 6.35688965 -38.4217334 6.6512793 -39.25073242 6.95458984 C-43.75577057 8.64186028 -48.12871254 10.48989616 -52.46875 12.56640625 C-53.36231201 12.99107178 -54.25587402 13.4157373 -55.17651367 13.85327148 C-56.90350749 14.68645763 -58.62048612 15.5408071 -60.32543945 16.41821289 C-62.56405281 17.50114641 -64.5781607 18.43278427 -67 19 C-70.57421875 17.7421875 -70.57421875 17.7421875 -73 16 C-73 15.34 -73 14.68 -73 14 C-73.639375 13.71125 -74.27875 13.4225 -74.9375 13.125 C-77 12 -77 12 -78 10 C-76.9896167 9.83709473 -75.9792334 9.67418945 -74.93823242 9.50634766 C-63.90546191 7.67372427 -53.13605084 5.17266504 -42.3125 2.375 C-39.92111978 1.76136646 -37.52929357 1.14957496 -35.13676453 0.54043579 C-33.66793299 0.16603877 -32.19978898 -0.21107074 -30.73249817 -0.59146118 C-21.09692638 -3.05932369 -8.77758461 -6.01891516 0 0 Z " transform="translate(176,41)" style="fill: #FDCC40;"/><path d="M0 0 C0.33 0 0.66 0 1 0 C1.01981934 0.56509277 1.03963867 1.13018555 1.06005859 1.71240234 C1.15518236 4.26707997 1.26491058 6.82092541 1.375 9.375 C1.42140625 10.70917969 1.42140625 10.70917969 1.46875 12.0703125 C1.50742188 12.92109375 1.54609375 13.771875 1.5859375 14.6484375 C1.6173584 15.43395996 1.6487793 16.21948242 1.68115234 17.02880859 C1.8399465 19.23002939 1.8399465 19.23002939 4 21 C5.63536129 21.32819429 7.28422702 21.59157806 8.9375 21.8125 C11.66796875 22.29296875 11.66796875 22.29296875 14 23 C15.75 25.625 15.75 25.625 17 28 C21.19341188 28.63812789 24.20414534 27.78628454 28 26 C27.7464147 30.31095008 27.4154009 32.49714628 24.625 35.875 C20.48214545 39.2287394 17.21610635 39.35363433 12 39 C6.55999535 36.9733316 3.55252111 34.32492719 1.08984375 29.05078125 C-1.95976401 20.6962744 -2.7735455 8.54430953 0 0 Z " transform="translate(71,51)" style="fill: #E0F1FB;"/><path d="M0 0 C6.21234552 3.14425193 10.61381912 8.0034785 12.90234375 14.6015625 C13.65284481 17.05711896 14.35191521 19.51567497 15 22 C12.66907967 20.84205893 10.36083052 19.66001623 8.0625 18.4375 C3.54764625 16.45489031 -1.14689679 16.58965517 -6.01171875 16.50390625 C-9.64165873 15.89179872 -10.82032803 14.92191038 -13 12 C-13.44902962 7.8090569 -13.44565826 4.53261749 -11 1 C-7.46282986 -0.76858507 -3.85235177 -0.64513068 0 0 Z " transform="translate(164,21)" style="fill: #0C162E;"/><path d="M0 0 C0 0.66 0 1.32 0 2 C-0.886875 2.350625 -1.77375 2.70125 -2.6875 3.0625 C-6.32437623 5.18972949 -7.74938618 7.07651175 -9.921875 10.57421875 C-10.27765625 11.04472656 -10.6334375 11.51523438 -11 12 C-11.66 12 -12.32 12 -13 12 C-13.226875 12.763125 -13.45375 13.52625 -13.6875 14.3125 C-15.33643345 17.68888754 -16.52163182 18.60865273 -20 20 C-23.7869577 19.93470763 -26.05995834 19.74063889 -29.0625 17.375 C-30.18306858 14.53622628 -29.92571472 12.74082267 -28.9375 9.875 C-26.64235247 5.28470495 -23.23087958 1.82058638 -19 -1 C-12.44048183 -2.6633543 -6.45500751 -1.63059689 0 0 Z " transform="translate(171,81)" style="fill: #BFC755;"/><path d="M0 0 C4.33462703 3.42207397 5.00106601 8.19584602 6.09375 13.37890625 C7.15186305 16.43922461 8.58247643 17.89457476 11 20 C6.94835072 22.02582464 2.00938416 21.64750733 -2.23046875 20.28125 C-6.50844236 18.29074821 -9.61991971 16.18894131 -12 12 C-12.97042798 8.39863394 -13.39082033 5.17246099 -12.1875 1.5625 C-9.17810045 -2.39723625 -4.29929244 -1.07482311 0 0 Z " transform="translate(136,117)" style="fill: #CBD35A;"/><path d="M0 0 C2.2477975 2.05233685 3.0022242 3.00667261 4 6 C4.06022373 8.08248264 4.06048651 10.16691037 4.02734375 12.25 C4.01509766 13.49910156 4.00285156 14.74820313 3.99023438 16.03515625 C3.95549295 18.64719646 3.91653477 21.25918452 3.87304688 23.87109375 C3.80672731 31.49394229 4.27733965 38.56444527 6 46 C7.32 46.33 8.64 46.66 10 47 C10 51.29 10 55.58 10 60 C7.36 60 4.72 60 2 60 C-3.00390465 49.99219069 -0.10803606 32.61701272 -0.0625 21.6875 C-0.05747421 19.57877711 -0.05291322 17.47005305 -0.04882812 15.36132812 C-0.03790973 10.24085629 -0.02070474 5.12044124 0 0 Z " transform="translate(36,104)" style="fill: #9A392B;"/><path d="M0 0 C2.5 0.3125 2.5 0.3125 5 1 C8.24656944 7.49313888 5.78947557 17.09615473 4.1171875 23.77734375 C1.6959437 30.76170088 -2.46673371 37.08027864 -8 42 C-8.66 42 -9.32 42 -10 42 C-9.57006438 37.59315994 -8.29764335 34.77827668 -6.05078125 31.01171875 C-2.05958129 23.37057384 -1.60128149 15.01916204 -1.2902832 6.57470703 C-1.08730037 1.08730037 -1.08730037 1.08730037 0 0 Z " transform="translate(104,71)" style="fill: #132045;"/><path d="M0 0 C1.42247747 2.84495493 1.20793601 5.3311796 1.25 8.5 C1.27578125 9.6653125 1.3015625 10.830625 1.328125 12.03125 C1.21984375 13.0109375 1.1115625 13.990625 1 15 C-2.82413206 17.54942138 -4.45423416 17.59616601 -9 17 C-11.89877262 15.2566822 -14.45444156 13.22157827 -17 11 C-14.28408988 5.85406503 -11.3092815 2.9237126 -5.875 0.75 C-3 0 -3 0 0 0 Z " transform="translate(91,31)" style="fill: #F77B4C;"/><path d="M0 0 C0 2.31 0 4.62 0 7 C-5.87883349 9.61281488 -11.70731728 9.18328202 -18 9 C-18 6.36 -18 3.72 -18 1 C-15.93769732 0.8309093 -13.8751477 0.66482867 -11.8125 0.5 C-10.08966797 0.36078125 -10.08966797 0.36078125 -8.33203125 0.21875 C-5.53927574 0.0354038 -2.79680188 -0.04213637 0 0 Z " transform="translate(88,115)" style="fill: #B8583E;"/><path d="M0 0 C1.66611905 -0.042721 3.33382885 -0.04063832 5 0 C6.56095477 1.56095477 6.16961928 3.09000895 6.1875 5.25 C6.15819716 8.92457661 5.71100294 11.6849318 4 15 C3.01 15 2.02 15 1 15 C0.67 15.66 0.34 16.32 0 17 C-0.98844951 13.05352382 -0.96191905 9.72607036 -0.5625 5.6875 C-0.46066406 4.61886719 -0.35882813 3.55023438 -0.25390625 2.44921875 C-0.17011719 1.64097656 -0.08632812 0.83273438 0 0 Z " transform="translate(88,110)" style="fill: #8AD4EF;"/><path d="M0 0 C1.98 0 3.96 0 6 0 C6.02703381 1.93742341 6.04641125 3.87495479 6.0625 5.8125 C6.07410156 6.89144531 6.08570312 7.97039062 6.09765625 9.08203125 C6 12 6 12 5 15 C3.35 15 1.7 15 0 15 C0 10.05 0 5.1 0 0 Z " transform="translate(64,112)" style="fill: #90DFFA;"/><path d="M0 0 C3.43752007 1.5277867 6.18953688 3.50181056 9 6 C9 6.66 9 7.32 9 8 C10.98 8.66 12.96 9.32 15 10 C15 10.99 15 11.98 15 13 C14.030625 13.37125 13.06125 13.7425 12.0625 14.125 C8.68859031 15.71052362 8.68859031 15.71052362 8.125 19.1875 C8.08375 20.115625 8.0425 21.04375 8 22 C7.67 22 7.34 22 7 22 C6.87239264 14.34355828 6.87239264 14.34355828 7.8125 11.8125 C7.874375 11.214375 7.93625 10.61625 8 10 C5.7295585 7.47906969 5.7295585 7.47906969 3 5 C1.94712186 3.36622358 0.9272999 1.70818403 0 0 Z " transform="translate(94,49)" style="fill: #334CB2;"/><path d="M0 0 C0 0.33 0 0.66 0 1 C-4.455 1.495 -4.455 1.495 -9 2 C-8.01 3.485 -8.01 3.485 -7 5 C-7.99 5.495 -7.99 5.495 -9 6 C-9.38800781 5.33484375 -9.77601562 4.6696875 -10.17578125 3.984375 C-11.83228781 1.72597472 -11.83228781 1.72597472 -14.48046875 1.828125 C-15.37378906 1.96734375 -16.26710938 2.1065625 -17.1875 2.25 C-18.08855469 2.37890625 -18.98960938 2.5078125 -19.91796875 2.640625 C-20.60503906 2.75921875 -21.29210937 2.8778125 -22 3 C-15.91978334 -3.68823832 -7.97351898 -3.27118728 0 0 Z " transform="translate(134,110)" style="fill: #A54B3D;"/><path d="M0 0 C2.625 0.375 2.625 0.375 5 1 C5.6875 3.3125 5.6875 3.3125 6 6 C4.8125 7.875 4.8125 7.875 3 9 C0.86254078 8.74853421 -0.45925779 8.54074221 -2 7 C-2.1875 4.5625 -2.1875 4.5625 -2 2 C-1.34 1.34 -0.68 0.68 0 0 Z " transform="translate(86,36)" style="fill: #EFDDD7;"/><path d="M0 0 C1.21236328 0.01353516 1.21236328 0.01353516 2.44921875 0.02734375 C3.37154297 0.04474609 3.37154297 0.04474609 4.3125 0.0625 C4.6425 1.0525 4.9725 2.0425 5.3125 3.0625 C2.78774538 4.32487731 1.00049534 4.16106404 -1.8125 4.125 C-2.72257813 4.11597656 -3.63265625 4.10695313 -4.5703125 4.09765625 C-5.26898438 4.08605469 -5.96765625 4.07445312 -6.6875 4.0625 C-7.0175 3.0725 -7.3475 2.0825 -7.6875 1.0625 C-4.80538698 0.10179566 -2.98899956 -0.04331883 0 0 Z " transform="translate(132.6875,20.9375)" style="fill: #FFFAEC;"/><path d="M0 0 C0.66 0.33 1.32 0.66 2 1 C1.01 1.33 0.02 1.66 -1 2 C-1.68486725 3.32407669 -2.34870203 4.65909241 -3 6 C-3.680625 6.61875 -4.36125 7.2375 -5.0625 7.875 C-7.52865012 10.57980981 -7.77414758 12.3863613 -8 16 C-7.6422386 18.27650745 -7.6422386 18.27650745 -7 20 C-9.02155879 18.35124816 -9.94197307 17.56338873 -10.21484375 14.9140625 C-9.59987398 9.83839651 -8.86138614 6.64686469 -5 3 C-2.375 1.125 -2.375 1.125 0 0 Z " transform="translate(150,80)" style="fill: #5A5C38;"/><path d="M0 0 C0.99 0 1.98 0 3 0 C3.33 3.63 3.66 7.26 4 11 C3.01 11.33 2.02 11.66 1 12 C-0.26237731 9.47524538 -0.09856404 7.68799534 -0.0625 4.875 C-0.05347656 3.96492188 -0.04445312 3.05484375 -0.03515625 2.1171875 C-0.02355469 1.41851562 -0.01195312 0.71984375 0 0 Z " transform="translate(60,91)" style="fill: #EFF1F9;"/><path d="M0 0 C0 0.66 0 1.32 0 2 C-3.06533164 3.53266582 -6.26754272 3.10276471 -9.625 3.0625 C-10.33140625 3.05798828 -11.0378125 3.05347656 -11.765625 3.04882812 C-13.51045275 3.03703875 -15.255237 3.01910324 -17 3 C-17 2.34 -17 1.68 -17 1 C-15.10440036 0.83069605 -13.20850769 0.66467136 -11.3125 0.5 C-10.25675781 0.4071875 -9.20101562 0.314375 -8.11328125 0.21875 C-5.39363975 0.0276585 -2.72460144 -0.04043935 0 0 Z " transform="translate(88,115)" style="fill: #953327;"/><path d="M0 0 C1.98 0 3.96 0 6 0 C5.01 1.485 5.01 1.485 4 3 C3.75944532 5.05709596 3.75944532 5.05709596 3.875 7.1875 C3.91625 8.445625 3.9575 9.70375 4 11 C3.01 11.495 3.01 11.495 2 12 C1.67 9.69 1.34 7.38 1 5 C0.67 5 0.34 5 0 5 C0 3.35 0 1.7 0 0 Z " transform="translate(64,112)" style="fill: #74CDED;"/><path d="M0 0 C3.71888239 0.50712033 6.73454239 1.11608215 10 3 C6.06329512 4.31223496 3.87511856 3.24296256 0 2 C0 1.34 0 0.68 0 0 Z " transform="translate(166,38)" style="fill: #F6C231;"/><path d="M0 0 C3.81684226 1.55500981 6.19195732 4.03595495 9 7 C6 7 6 7 3.375 4.625 C1 2 1 2 0 0 Z " transform="translate(94,49)" style="fill: #4759A6;"/><path d="M0 0 C1.32 0.33 2.64 0.66 4 1 C3.67 2.32 3.34 3.64 3 5 C2.01 5 1.02 5 0 5 C0 3.35 0 1.7 0 0 Z " transform="translate(86,38)" style="fill: #3C3C3C;"/></svg>